<svg width="137" height="48" xmlns="http://www.w3.org/2000/svg">
 <defs>
  <clipPath id="clip0">
   <rect id="svg_1" fill="white" height="48" width="137"/>
  </clipPath>
 </defs>
 <g>
  <title>background</title>
  <rect fill="none" id="canvas_background" height="602" width="802" y="-1" x="-1"/>
 </g>
 <g>
  <title>Layer 1</title>
  <g id="svg_2" clip-path="url(#clip0)">
   <path id="svg_3" fill="#29EDFD" d="m66.4549,15.06695l0,1.9592l-7.42,0l0,-12.15417l7.2752,0l0,1.95918l-5.2121,0l0,3.04762l4.4158,0l0,1.92291l-4.452,0l0,3.26526l5.3931,0z"/>
   <path id="svg_4" fill="#29EDFD" d="m77.4222,16.44565c-0.362,0.254 -0.7963,0.4354 -1.3031,0.5805c-0.5067,0.1452 -1.0496,0.2177 -1.6288,0.2177c-1.0858,0 -1.9183,-0.3628 -2.4612,-1.0521c-0.543,-0.6894 -0.7963,-1.6327 -0.7963,-2.82997l0,-6.53062l-3.33,0l0,-1.95918l5.3931,0l0,8.23583c0,0.68934 0.1448,1.19728 0.3981,1.59634c0.2534,0.3628 0.6154,0.5805 1.0859,0.5805c0.7601,0 1.5202,-0.2539 2.2803,-0.7256l0.362,1.8866z"/>
   <path id="svg_5" fill="#29EDFD" d="m85.5662,8.64522c0.5429,0.32653 1.0134,0.83447 1.3754,1.52381c0.3619,0.68935 0.5429,1.52381 0.5429,2.5034c0,0.9796 -0.181,1.85034 -0.5429,2.50342c-0.362,0.6893 -0.8325,1.1973 -1.4116,1.5238c-0.543,0.3265 -1.1221,0.5079 -1.7012,0.5079c-1.3393,0 -2.2803,-0.6167 -2.8233,-1.8866c-0.0362,0.9433 -0.0724,1.4875 -0.0724,1.7052l-2.0631,0c0.4705,-1.5963 0.7239,-3.26528 0.7239,-5.00678l0,-7.14739l2.0631,0l-0.1085,4.39002c0.5429,-0.72562 1.3392,-1.08843 2.3889,-1.08843c0.5429,0 1.0858,0.14512 1.6288,0.47165zm-0.6154,5.95013c0.3258,-0.43539 0.5068,-1.08845 0.5068,-1.92292c0,-0.83446 -0.181,-1.48752 -0.543,-1.9229c-0.3619,-0.43537 -0.8325,-0.65306 -1.4116,-0.65306c-0.5791,0 -1.0135,0.25397 -1.3392,0.72562c-0.3258,0.47166 -0.4706,1.08844 -0.4706,1.85034c0,0.76191 0.1448,1.37869 0.4706,1.85034c0.3257,0.47168 0.7963,0.72558 1.4116,0.72558c0.5791,0 1.0497,-0.2176 1.3754,-0.653z"/>
   <path id="svg_6" fill="#29EDFD" d="m96.7868,12.30962l-2.0632,0c0,-1.45124 -0.362,-2.17687 -1.0497,-2.17687c-0.6515,0 -1.122,0.3991 -1.4478,1.23356c-0.3257,0.83447 -0.5067,1.92291 -0.5067,3.26534l0,2.4308l-2.0632,0l0,-3.88208c0,-0.72562 -0.0724,-1.56009 -0.2171,-2.5034c-0.1448,-0.90703 -0.2896,-1.70521 -0.5068,-2.35828l1.846,0c0.0724,0.47166 0.1448,1.26985 0.2172,2.39456c0.2533,-0.79818 0.6153,-1.45124 1.122,-1.88662c0.5068,-0.43537 1.1221,-0.68934 1.846,-0.68934c1.3392,0 2.1717,0.65306 2.5699,1.9229c0.181,0.54422 0.2534,1.26984 0.2534,2.24943z"/>
   <path id="svg_7" fill="#29edfd" d="m104.46,17.02615l-0.072,-2.2857c-0.254,0.7619 -0.615,1.3787 -1.086,1.8141c-0.471,0.4353 -1.014,0.653 -1.665,0.653c-1.267,0 -2.1356,-0.5442 -2.5337,-1.6689c-0.2896,-0.7982 -0.3982,-1.77778 -0.3982,-2.93878l0,-4.28118l2.0629,0l0,3.91837c0,1.08844 0.073,1.85034 0.217,2.24943c0.109,0.25396 0.218,0.43536 0.362,0.58046c0.145,0.1089 0.326,0.1814 0.58,0.1814c0.651,0 1.122,-0.399 1.447,-1.16095c0.29,-0.7619 0.471,-1.77778 0.471,-3.01134l0,-2.75737l2.063,0l0,3.6644c0,1.7415 0.253,3.41046 0.724,5.00676l-2.172,0l0,0.0363z"/>
   <path id="svg_8" fill="#29EDFD" d="m115.174,13.03525c0.29,0.39909 0.471,0.90703 0.471,1.48753c0,0.79817 -0.326,1.45127 -0.978,1.92287c-0.651,0.4717 -1.448,0.7257 -2.461,0.7257c-0.832,0 -1.629,-0.1452 -2.425,-0.4354c-0.796,-0.2903 -1.376,-0.6894 -1.81,-1.2336l1.303,-1.34239c0.688,0.68939 1.665,1.05219 2.932,1.05219c0.507,0 0.833,-0.0726 1.05,-0.2177c0.217,-0.1451 0.325,-0.3265 0.325,-0.50795c0,-0.14513 -0.072,-0.25397 -0.181,-0.36282c-0.108,-0.10884 -0.289,-0.1814 -0.542,-0.25396l-2.607,-0.83447c-1.375,-0.43538 -2.063,-1.19728 -2.063,-2.322c0,-0.87075 0.326,-1.52381 1.014,-1.95918c0.651,-0.43538 1.52,-0.61678 2.606,-0.61678c0.724,0 1.375,0.10884 1.991,0.32653c0.615,0.21769 1.122,0.50794 1.484,0.90703l-1.267,1.45125c-0.29,-0.25397 -0.652,-0.43538 -1.05,-0.54422c-0.398,-0.10884 -0.796,-0.18141 -1.158,-0.18141c-1.014,0 -1.557,0.18141 -1.557,0.5805c0,0.14513 0.073,0.25397 0.181,0.32653c0.109,0.10885 0.29,0.18141 0.543,0.29025l2.606,0.83447c0.797,0.21769 1.303,0.50794 1.593,0.90703z"/>
   <path id="svg_23" fill="#00EDFF" d="m44.9186,0l-44.9186,0l0,45.0249l44.9186,0l0,-45.0249z"/>
   <path id="svg_24" fill="#4520AB" d="m10.8225,8.19955l-1.77359,0l0,1.26984l1.70119,0l0,0.43537l-1.70119,0l0,1.70524l1.73739,0l0,0.4354l-2.20793,0l0,-4.28123l2.20793,0l0,0.43538l0.0362,0z"/>
   <path id="svg_25" fill="#4520AB" d="m17.5548,7.76417l0,3.84583l1.1945,0l0,0.4354l-1.665,0l0,-4.28123l0.4705,0z"/>
   <path id="svg_26" fill="#4520AB" d="m25.9522,7.76417c0.2534,0 0.6515,0.03628 0.9773,0.25397c0.1447,0.10884 0.3981,0.36281 0.3981,0.87075c0,0.21769 -0.0362,0.5805 -0.4343,0.83447c0.5791,0.14512 0.8325,0.65304 0.8325,1.08844c0,0.4354 -0.2172,0.7619 -0.4344,0.9433c-0.3257,0.254 -0.7239,0.2903 -1.0135,0.2903l-1.0496,0l0,-4.28123l0.7239,0zm-0.2896,1.88662l0.362,0c0.2533,0 0.8325,-0.03628 0.8325,-0.72562c0,-0.68934 -0.6877,-0.72562 -0.8325,-0.72562l-0.362,0l0,1.45124zm0,1.95921l0.543,0c0.2895,0 0.5429,-0.0363 0.7601,-0.1814c0.1809,-0.1089 0.2895,-0.3266 0.2895,-0.5805c0,-0.3266 -0.181,-0.5442 -0.3619,-0.6168c-0.1448,-0.0726 -0.3982,-0.1451 -0.7239,-0.1451l-0.4706,0l0,1.5238l-0.0362,0z"/>
   <path id="svg_27" fill="#4520AB" d="m34.1685,7.76417c0.2896,0 0.724,0.03628 1.0497,0.25397c0.2534,0.18141 0.4706,0.50794 0.4706,0.94331c0,0.65306 -0.4344,1.12475 -1.0859,1.19725l1.3754,1.9229l-0.5791,0l-1.303,-1.9229l-0.1086,0l0,1.8867l-0.4706,0l0,-4.28123l0.6515,0zm-0.2171,1.99547l0.2895,0c0.5792,0 0.9411,-0.29025 0.9411,-0.79819c0,-0.25397 -0.0724,-0.47165 -0.3257,-0.61678c-0.181,-0.10884 -0.3982,-0.10884 -0.6154,-0.10884l-0.2895,0l0,1.52381z"/>
   <path id="svg_28" fill="#4520AB" d="m8.54214,18.8299c0,0.3628 0,0.7619 0.32576,1.0522c0.18098,0.1451 0.47054,0.254 0.68771,0.254c0.21718,0 0.54289,-0.1089 0.68769,-0.254c0.3258,-0.2903 0.3258,-0.6894 0.3258,-1.0522l0,-2.6122l0.4705,0l0,2.7574c0,0.3628 -0.0362,0.6893 -0.2533,1.0158c-0.2534,0.3628 -0.6878,0.5805 -1.26688,0.5805c-0.54293,0 -0.97728,-0.2177 -1.26685,-0.5805c-0.21717,-0.3265 -0.25336,-0.653 -0.25336,-1.0158l0,-2.7574l0.47054,0l0,2.6122l0.07239,0z"/>
   <path id="svg_29" fill="#4520AB" d="m18.7492,17.0522c-0.0723,-0.1089 -0.1447,-0.254 -0.2533,-0.3266c-0.0724,-0.0725 -0.2534,-0.1451 -0.4706,-0.1451c-0.4343,0 -0.7239,0.254 -0.7239,0.6531c0,0.1814 0.0362,0.2539 0.1448,0.3628c0.1448,0.1451 0.2896,0.1814 0.4344,0.2539l0.3981,0.1814c0.2534,0.1089 0.4705,0.2177 0.6515,0.3991c0.2172,0.2177 0.3258,0.4717 0.3258,0.7619c0,0.7982 -0.5791,1.3062 -1.3392,1.3062c-0.2896,0 -0.6516,-0.0726 -0.9411,-0.3628c-0.2172,-0.2177 -0.3258,-0.508 -0.3982,-0.7619l0.4706,-0.1452c0.0362,0.2177 0.1447,0.4354 0.2533,0.5442c0.181,0.1814 0.3982,0.254 0.6154,0.254c0.5791,0 0.8686,-0.4354 0.8686,-0.8345c0,-0.1814 -0.0723,-0.3628 -0.2171,-0.5079c-0.1086,-0.1088 -0.2896,-0.1814 -0.5068,-0.2902l-0.3981,-0.1814c-0.181,-0.0726 -0.362,-0.1815 -0.5791,-0.3629c-0.181,-0.1814 -0.2896,-0.3628 -0.2896,-0.6893c0,-0.6531 0.5067,-1.0884 1.1944,-1.0884c0.2534,0 0.4706,0.0362 0.6878,0.1814c0.1809,0.1088 0.3257,0.2902 0.4343,0.4716l-0.362,0.3266z"/>
   <path id="svg_30" fill="#4520AB" d="m27.6172,15.6735l0.3619,0.1814l-3.2214,5.7687l-0.3619,-0.1814l3.2214,-5.7687z"/>
   <path id="svg_31" fill="#4520AB" d="m9.48325,24.6349c0.25337,0 0.65155,0.0363 0.97725,0.254c0.1448,0.1088 0.3982,0.3628 0.3982,0.8707c0,0.2177 -0.0362,0.5805 -0.4344,0.8345c0.5792,0.1451 0.8325,0.6531 0.8325,1.0884c0,0.3991 -0.2171,0.7619 -0.4343,0.9433c-0.3258,0.254 -0.7239,0.2903 -1.01349,0.2903l-1.04967,0l0,-4.2812l0.72391,0zm-0.28957,1.8866l0.36196,0c0.25337,0 0.83246,-0.0362 0.83246,-0.7256c0,-0.6893 -0.68768,-0.7256 -0.83246,-0.7256l-0.36196,0l0,1.4512zm0,1.9592l0.54294,0c0.28958,0 0.54288,-0.0363 0.76008,-0.1814c0.181,-0.1088 0.2896,-0.3265 0.2896,-0.5805c0,-0.3265 -0.181,-0.5442 -0.362,-0.6168c-0.1448,-0.0725 -0.3981,-0.1451 -0.72388,-0.1451l-0.47054,0l0,1.5238l-0.0362,0z"/>
   <path id="svg_32" fill="#4520AB" d="m16.9757,28.3719c-0.2895,-0.3991 -0.4343,-0.9796 -0.4343,-1.5601c0,-0.6168 0.1448,-1.161 0.4343,-1.5601c0.3258,-0.4717 0.7601,-0.6531 1.0859,-0.6531c0.3258,0 0.7601,0.1814 1.0859,0.6531c0.2895,0.3991 0.4343,0.9796 0.4343,1.5601c0,0.6168 -0.1448,1.161 -0.4343,1.5601c-0.3258,0.4716 -0.7601,0.653 -1.0859,0.653c-0.3258,0 -0.7601,-0.1814 -1.0859,-0.653zm0.362,-2.9025c-0.2172,0.3628 -0.3258,0.8707 -0.3258,1.3061c0,0.4354 0.0724,0.9433 0.3258,1.3061c0.2172,0.3628 0.5067,0.4717 0.7239,0.4717c0.2172,0 0.5067,-0.1089 0.7239,-0.4717c0.2172,-0.3628 0.3258,-0.8707 0.3258,-1.3061c0,-0.4354 -0.0724,-0.9433 -0.3258,-1.3061c-0.2172,-0.3628 -0.5067,-0.4717 -0.7239,-0.4717c-0.2172,0 -0.5067,0.1089 -0.7239,0.4717z"/>
   <path id="svg_33" fill="#4520AB" d="m25.2283,28.3719c-0.2896,-0.3991 -0.4344,-0.9796 -0.4344,-1.5601c0,-0.6168 0.1448,-1.161 0.4344,-1.5601c0.3258,-0.4717 0.7601,-0.6531 1.0859,-0.6531c0.3257,0 0.7601,0.1814 1.0858,0.6531c0.2896,0.3991 0.4344,0.9796 0.4344,1.5601c0,0.6168 -0.1448,1.161 -0.4344,1.5601c-0.3257,0.4716 -0.7601,0.653 -1.0858,0.653c-0.3258,0 -0.7601,-0.1814 -1.0859,-0.653zm0.3619,-2.9025c-0.2171,0.3628 -0.3257,0.8707 -0.3257,1.3061c0,0.4354 0.0724,0.9433 0.3257,1.3061c0.2172,0.3628 0.5068,0.4717 0.724,0.4717c0.2171,0 0.5067,-0.1089 0.7239,-0.4717c0.2171,-0.3628 0.3257,-0.8707 0.3257,-1.3061c0,-0.4354 -0.0724,-0.9433 -0.3257,-1.3061c-0.2172,-0.3628 -0.5068,-0.4717 -0.7239,-0.4717c-0.2172,0 -0.5068,0.1089 -0.724,0.4717z"/>
   <path id="svg_34" fill="#4520AB" d="m34.8925,25.1066l0,3.8458l-0.4706,0l0,-3.8458l-1.0496,0l0,-0.4354l2.5699,0l0,0.4354l-1.0497,0z"/>
   <path id="svg_35" fill="#4520AB" d="m11.3654,34.0317c-0.1448,-0.1451 -0.3258,-0.2902 -0.5429,-0.3991c-0.2172,-0.1088 -0.4706,-0.1814 -0.724,-0.1814c-0.97723,0 -1.70114,0.7982 -1.70114,1.7778c0,1.161 0.94108,1.7415 1.73734,1.7415c0.2896,0 0.5792,-0.0725 0.7963,-0.1814c0.2534,-0.1088 0.4344,-0.2902 0.5068,-0.3628l0,0.5805c-0.4706,0.3265 -0.9773,0.4354 -1.3031,0.4354c-1.2668,0 -2.20788,-0.9796 -2.20788,-2.2132c0,-1.2698 0.94108,-2.2131 2.24408,-2.2131c0.2534,0 0.7601,0.0362 1.2669,0.4353l0,0.5805l-0.0724,0z"/>
   <path id="svg_36" fill="#4520AB" d="m18.9664,36.1723l-1.8097,0l-0.5068,1.1973l-0.5429,0l1.9546,-4.4989l1.9183,4.4989l-0.5429,0l-0.4706,-1.1973zm-0.1809,-0.4716l-0.7239,-1.7052l-0.724,1.7052l1.4479,0z"/>
   <path id="svg_37" fill="#4520AB" d="m24.1424,37.3696l0.7239,-4.5351l1.6288,3.6281l1.665,-3.6281l0.6515,4.5351l-0.4705,0l-0.3982,-2.975l-1.4478,3.1564l-1.4478,-3.1564l-0.4344,2.975l-0.4705,0z"/>
   <path id="svg_38" fill="#4520AB" d="m34.4582,33.0884c0.4343,0 0.7963,0.0363 1.0858,0.2903c0.3258,0.254 0.3982,0.653 0.3982,0.907c0,0.6168 -0.362,1.1973 -1.3393,1.1973l-0.4343,0l0,1.8503l-0.5067,0l0,-4.2449l0.7963,0zm-0.2896,1.9592l0.3982,0c0.5791,0 0.9048,-0.2902 0.9048,-0.7619c0,-0.6893 -0.6515,-0.7619 -0.941,-0.7619l-0.362,0l0,1.5238z"/>
  </g>
  <text xml:space="preserve" text-anchor="start" font-family="'Courier New', Courier, monospace" font-size="24" id="svg_40" y="40.70454" x="71.79547" fill-opacity="null" stroke-opacity="null" stroke-width="0" stroke="null" fill="#27ebf9">IN</text>
 </g>
</svg>